<?xml version="1.0" encoding="utf-8"?>
<!-- Generator: Adobe Illustrator 21.1.0, SVG Export Plug-In . SVG Version: 6.00 Build 0)  -->
<svg version="1.1" id="Layer_1" xmlns="http://www.w3.org/2000/svg" xmlns:xlink="http://www.w3.org/1999/xlink" x="0px" y="0px"
	 viewBox="0 0 398.7 176.5" style="enable-background:new 0 0 398.7 176.5;" xml:space="preserve">
<style type="text/css">
	.st0{fill:none;stroke:#4E4E50;stroke-width:8;stroke-miterlimit:10;}
	.st1{opacity:0.26;fill:#4E4E50;}
	.st2{fill:#C7C9CA;}
	.st3{fill:#4E4E50;}
	.st4{fill:#2A8ED1;}
	.st5{fill:#1960AE;}
	.st6{fill:#E7191C;}
	.st7{fill:#97999C;}
	.st8{fill:#FFFFFF;}
	.st9{fill:#D3D4D3;}
	.st10{fill:#515151;}
	.st11{fill:#A3A2A2;}
	.st12{fill:#7C7C7C;}
	.st13{fill:#A9A9A8;}
	.st14{fill:#A9AAA9;}
</style>
<path class="st2" d="M86.6,165.5c-13.8-0.4-27.5-4.1-39.4-10.9c-2.9-1.9-5.9-3.5-8.5-5.7l-4-3.2l-3.7-3.5l-1.9-1.8l-1.7-1.9
	l-3.4-3.8l-3-4.1c-1-1.4-2-2.8-2.8-4.3l-2.5-4.4c-0.8-1.5-1.4-3.1-2.2-4.6c-1.5-3-2.5-6.3-3.6-9.5c-0.6-1.6-0.8-3.3-1.3-4.9
	c-0.3-1.7-0.9-3.3-1-4.9c-0.4-3.3-1-6.7-1-10C6.2,74.6,8.9,61,14.9,49.2C26.5,25.1,51,8.4,77,5.9c12.9-1.5,26.2,0.6,38,5.6
	c11.9,4.9,22.4,13.1,30.3,23c-8.4-9.6-19-17.2-30.9-21.5c-11.8-4.4-24.7-5.8-37-3.9c-24.8,3.5-46.9,20.3-56.6,42.8
	c-5.1,11.1-7,23.5-6,35.5c0.1,3,0.8,6,1.3,8.9c0.2,1.5,0.8,2.9,1.1,4.4c0.4,1.4,0.7,2.9,1.3,4.3c1.1,2.8,2,5.6,3.5,8.3
	c0.7,1.3,1.3,2.7,2.1,4l2.4,3.8c0.8,1.3,1.7,2.5,2.6,3.6l2.8,3.5l3.1,3.2l1.5,1.6l1.7,1.5l3.4,2.9l3.6,2.6c2.3,1.8,5,3.1,7.5,4.6
	c10.5,5.4,22.3,8.1,33.9,7.9V165.5z"/>
<g>
	<path class="st3" d="M195.6,57.4v72.3h-16.4V57.4H195.6z"/>
	<path class="st3" d="M210.3,112.8c4.4,2.3,11.2,4.5,18.1,4.5c7.5,0,11.5-3.1,11.5-7.8c0-4.5-3.4-7.1-12.1-10.2
		C215.8,95.1,208,88.5,208,78c0-12.3,10.3-21.8,27.4-21.8c8.2,0,14.2,1.7,18.5,3.6L250.1,73c-2.9-1.4-8-3.4-15.1-3.4
		c-7.1,0-10.5,3.2-10.5,7c0,4.6,4.1,6.7,13.4,10.2c12.8,4.7,18.8,11.4,18.8,21.6c0,12.1-9.3,22.4-29.2,22.4
		c-8.3,0-16.4-2.1-20.5-4.4L210.3,112.8z"/>
	<path class="st3" d="M284.6,111.1l-5.2,18.6h-17l22.1-72.3H306l22.4,72.3h-17.6l-5.6-18.6H284.6z M302.9,98.9l-4.5-15.3
		c-1.3-4.3-2.6-9.7-3.6-14h-0.2c-1.1,4.3-2.1,9.8-3.3,14l-4.3,15.3H302.9z"/>
	<path class="st3" d="M388.6,127.7c-3,1.5-9.8,3.1-18.6,3.1c-25,0-37.9-15.6-37.9-36.2c0-24.7,17.6-38.4,39.5-38.4
		c8.5,0,14.9,1.7,17.8,3.2l-3.3,13c-3.3-1.4-7.9-2.7-13.7-2.7c-13,0-23.1,7.8-23.1,23.9c0,14.5,8.6,23.6,23.2,23.6
		c4.9,0,10.4-1.1,13.6-2.4L388.6,127.7z"/>
</g>
<g>
	<polygon class="st4" points="57.6,94.8 114.2,38.2 134.6,58.6 98.4,94.8 134.6,131 114.2,151.4 	"/>
</g>
<polyline class="st5" points="78,74.4 81.4,71 101.8,91.4 98.3,94.9 "/>
<polyline class="st5" points="98.4,94.7 101.8,98.2 81.4,118.6 77.9,115.1 "/>
<g>
	<path class="st6" d="M98.4,94.8L42,151.2c0,0-5.6-3.7-11.8-9.8c-6.2-6.2-8.7-10.5-8.7-10.5l36.2-36.2L21.4,58.6l20.4-20.4
		L98.4,94.8z"/>
</g>
<rect x="99.4" y="92.4" transform="matrix(0.7071 0.7071 -0.7071 0.7071 96.8464 -44.219)" class="st7" width="4.8" height="4.8"/>
<rect x="137.6" y="91" class="st7" width="26" height="7.9"/>
<g>
	<path class="st3" d="M179.8,141.1c0.5-0.1,1.4-0.2,2.3-0.2c1.2,0,2.1,0.2,2.7,0.7c0.5,0.4,0.8,0.9,0.8,1.7c0,0.9-0.6,1.7-1.6,2.1v0
		c0.9,0.2,2,1,2,2.4c0,0.8-0.3,1.5-0.8,1.9c-0.7,0.6-1.8,0.9-3.3,0.9c-0.9,0-1.5-0.1-1.9-0.1V141.1z M181.1,145h1.1
		c1.3,0,2.1-0.7,2.1-1.6c0-1.1-0.9-1.6-2.1-1.6c-0.6,0-0.9,0-1.1,0.1V145z M181.1,149.7c0.2,0,0.6,0.1,1,0.1c1.3,0,2.5-0.5,2.5-1.9
		c0-1.3-1.1-1.9-2.5-1.9h-1V149.7z"/>
	<path class="st3" d="M187.5,145.9c0-0.8,0-1.5-0.1-2.2h1.1l0,1.4h0.1c0.3-0.9,1.1-1.5,1.9-1.5c0.1,0,0.2,0,0.4,0v1.2
		c-0.1,0-0.3,0-0.4,0c-0.9,0-1.5,0.7-1.7,1.6c0,0.2-0.1,0.4-0.1,0.6v3.7h-1.2V145.9z"/>
	<path class="st3" d="M193.7,141.7c0,0.4-0.3,0.8-0.8,0.8c-0.4,0-0.8-0.3-0.8-0.8c0-0.4,0.3-0.8,0.8-0.8
		C193.4,140.9,193.7,141.3,193.7,141.7z M192.3,150.6v-6.9h1.3v6.9H192.3z"/>
	<path class="st3" d="M201.6,140.4v8.4c0,0.6,0,1.3,0.1,1.8h-1.1l-0.1-1.2h0c-0.4,0.8-1.2,1.4-2.4,1.4c-1.7,0-3-1.4-3-3.5
		c0-2.3,1.4-3.7,3.1-3.7c1.1,0,1.8,0.5,2.1,1.1h0v-4.1H201.6z M200.4,146.5c0-0.2,0-0.4-0.1-0.5c-0.2-0.8-0.9-1.5-1.8-1.5
		c-1.3,0-2.1,1.1-2.1,2.7c0,1.4,0.7,2.6,2.1,2.6c0.8,0,1.6-0.6,1.9-1.5c0-0.2,0.1-0.3,0.1-0.5V146.5z"/>
	<path class="st3" d="M209.7,143.7c0,0.5-0.1,1.1-0.1,1.9v4c0,1.6-0.3,2.6-1,3.2c-0.7,0.6-1.7,0.8-2.5,0.8c-0.8,0-1.7-0.2-2.3-0.6
		l0.3-1c0.5,0.3,1.2,0.5,2,0.5c1.3,0,2.2-0.7,2.2-2.4v-0.8h0c-0.4,0.6-1.1,1.2-2.2,1.2c-1.7,0-3-1.5-3-3.4c0-2.4,1.5-3.7,3.1-3.7
		c1.2,0,1.9,0.6,2.2,1.2h0l0.1-1H209.7z M208.4,146.4c0-0.2,0-0.4-0.1-0.6c-0.2-0.7-0.8-1.3-1.8-1.3c-1.2,0-2.1,1-2.1,2.6
		c0,1.4,0.7,2.5,2.1,2.5c0.8,0,1.5-0.5,1.7-1.3c0.1-0.2,0.1-0.5,0.1-0.7V146.4z"/>
	<path class="st3" d="M213.1,141.7c0,0.4-0.3,0.8-0.8,0.8c-0.4,0-0.8-0.3-0.8-0.8c0-0.4,0.3-0.8,0.8-0.8
		C212.8,140.9,213.1,141.3,213.1,141.7z M211.7,150.6v-6.9h1.3v6.9H211.7z"/>
	<path class="st3" d="M215,145.6c0-0.7,0-1.3-0.1-1.9h1.1l0.1,1.1h0c0.3-0.7,1.1-1.3,2.3-1.3c1,0,2.5,0.6,2.5,3v4.1h-1.3v-4
		c0-1.1-0.4-2.1-1.6-2.1c-0.8,0-1.5,0.6-1.7,1.3c-0.1,0.2-0.1,0.4-0.1,0.6v4.2H215V145.6z"/>
	<path class="st3" d="M229,143.7c0,0.5-0.1,1.1-0.1,1.9v4c0,1.6-0.3,2.6-1,3.2c-0.7,0.6-1.7,0.8-2.5,0.8c-0.8,0-1.7-0.2-2.3-0.6
		l0.3-1c0.5,0.3,1.2,0.5,2,0.5c1.3,0,2.2-0.7,2.2-2.4v-0.8h0c-0.4,0.6-1.1,1.2-2.2,1.2c-1.7,0-3-1.5-3-3.4c0-2.4,1.5-3.7,3.1-3.7
		c1.2,0,1.9,0.6,2.2,1.2h0l0.1-1H229z M227.7,146.4c0-0.2,0-0.4-0.1-0.6c-0.2-0.7-0.8-1.3-1.8-1.3c-1.2,0-2.1,1-2.1,2.6
		c0,1.4,0.7,2.5,2.1,2.5c0.8,0,1.5-0.5,1.7-1.3c0.1-0.2,0.1-0.5,0.1-0.7V146.4z"/>
	<path class="st3" d="M239,150.4c-0.3,0.2-1.1,0.4-2,0.4c-2.1,0-3.5-1.4-3.5-3.5c0-2.1,1.5-3.7,3.7-3.7c0.7,0,1.4,0.2,1.7,0.4
		l-0.3,1c-0.3-0.2-0.8-0.3-1.5-0.3c-1.6,0-2.5,1.2-2.5,2.6c0,1.6,1,2.6,2.4,2.6c0.7,0,1.2-0.2,1.5-0.3L239,150.4z"/>
	<path class="st3" d="M246.7,147.1c0,2.6-1.8,3.7-3.5,3.7c-1.9,0-3.3-1.4-3.3-3.6c0-2.3,1.5-3.7,3.4-3.7
		C245.3,143.5,246.7,145,246.7,147.1z M241.2,147.2c0,1.5,0.9,2.7,2.1,2.7c1.2,0,2.1-1.1,2.1-2.7c0-1.2-0.6-2.7-2.1-2.7
		C241.8,144.5,241.2,145.9,241.2,147.2z"/>
	<path class="st3" d="M248.3,145.6c0-0.7,0-1.3-0.1-1.9h1.1l0.1,1.1h0c0.4-0.7,1-1.3,2.2-1.3c0.9,0,1.7,0.6,2,1.4h0
		c0.2-0.4,0.5-0.7,0.8-0.9c0.4-0.3,0.9-0.5,1.5-0.5c0.9,0,2.3,0.6,2.3,3v4.1h-1.2v-3.9c0-1.3-0.5-2.1-1.5-2.1
		c-0.7,0-1.3,0.5-1.5,1.1c-0.1,0.2-0.1,0.4-0.1,0.6v4.3h-1.2v-4.2c0-1.1-0.5-1.9-1.4-1.9c-0.8,0-1.4,0.6-1.6,1.3
		c-0.1,0.2-0.1,0.4-0.1,0.6v4.2h-1.2V145.6z"/>
	<path class="st3" d="M260.2,145.6c0-0.7,0-1.3-0.1-1.9h1.1l0.1,1.1h0c0.4-0.7,1-1.3,2.2-1.3c0.9,0,1.7,0.6,2,1.4h0
		c0.2-0.4,0.5-0.7,0.8-0.9c0.4-0.3,0.9-0.5,1.5-0.5c0.9,0,2.3,0.6,2.3,3v4.1h-1.2v-3.9c0-1.3-0.5-2.1-1.5-2.1
		c-0.7,0-1.3,0.5-1.5,1.1c-0.1,0.2-0.1,0.4-0.1,0.6v4.3h-1.2v-4.2c0-1.1-0.5-1.9-1.4-1.9c-0.8,0-1.4,0.6-1.6,1.3
		c-0.1,0.2-0.1,0.4-0.1,0.6v4.2h-1.2V145.6z"/>
	<path class="st3" d="M278,148.7c0,0.7,0,1.3,0.1,1.9h-1.1l-0.1-1.1h0c-0.3,0.6-1.1,1.3-2.3,1.3c-1.1,0-2.4-0.6-2.4-3v-4.1h1.3v3.8
		c0,1.3,0.4,2.2,1.5,2.2c0.8,0,1.4-0.6,1.7-1.1c0.1-0.2,0.1-0.4,0.1-0.6v-4.3h1.3V148.7z"/>
	<path class="st3" d="M280.1,145.6c0-0.7,0-1.3-0.1-1.9h1.1l0.1,1.1h0c0.3-0.7,1.1-1.3,2.3-1.3c1,0,2.5,0.6,2.5,3v4.1h-1.3v-4
		c0-1.1-0.4-2.1-1.6-2.1c-0.8,0-1.5,0.6-1.7,1.3c-0.1,0.2-0.1,0.4-0.1,0.6v4.2h-1.3V145.6z"/>
	<path class="st3" d="M289.5,141.7c0,0.4-0.3,0.8-0.8,0.8c-0.4,0-0.8-0.3-0.8-0.8c0-0.4,0.3-0.8,0.8-0.8
		C289.2,140.9,289.5,141.3,289.5,141.7z M288.1,150.6v-6.9h1.3v6.9H288.1z"/>
	<path class="st3" d="M292.9,141.7v2h1.8v1h-1.8v3.7c0,0.9,0.2,1.3,0.9,1.3c0.3,0,0.6,0,0.7-0.1l0.1,0.9c-0.2,0.1-0.6,0.2-1.1,0.2
		c-0.6,0-1.1-0.2-1.4-0.5c-0.4-0.4-0.5-1-0.5-1.8v-3.8h-1.1v-1h1.1V142L292.9,141.7z"/>
	<path class="st3" d="M297.6,141.7c0,0.4-0.3,0.8-0.8,0.8c-0.4,0-0.8-0.3-0.8-0.8c0-0.4,0.3-0.8,0.8-0.8
		C297.3,140.9,297.6,141.3,297.6,141.7z M296.2,150.6v-6.9h1.3v6.9H296.2z"/>
	<path class="st3" d="M300.2,147.4c0,1.7,1.1,2.4,2.4,2.4c0.9,0,1.4-0.2,1.9-0.4l0.2,0.9c-0.4,0.2-1.2,0.4-2.3,0.4
		c-2.1,0-3.4-1.4-3.4-3.5c0-2.1,1.2-3.7,3.3-3.7c2.3,0,2.9,2,2.9,3.3c0,0.3,0,0.5,0,0.6H300.2z M303.9,146.5c0-0.8-0.3-2.1-1.7-2.1
		c-1.3,0-1.8,1.2-1.9,2.1H303.9z"/>
	<path class="st3" d="M306.5,149.3c0.4,0.2,1,0.5,1.7,0.5c0.9,0,1.3-0.5,1.3-1c0-0.6-0.4-0.9-1.3-1.3c-1.2-0.4-1.8-1.1-1.8-2
		c0-1.1,0.9-2,2.4-2c0.7,0,1.3,0.2,1.7,0.4l-0.3,0.9c-0.3-0.2-0.8-0.4-1.4-0.4c-0.7,0-1.2,0.4-1.2,0.9c0,0.6,0.4,0.8,1.3,1.2
		c1.2,0.5,1.8,1.1,1.8,2.1c0,1.2-0.9,2.1-2.6,2.1c-0.8,0-1.5-0.2-1.9-0.5L306.5,149.3z"/>
	<path class="st3" d="M315.5,150.6v-6h-1v-1h1v-0.3c0-1,0.2-1.9,0.8-2.4c0.5-0.5,1.1-0.6,1.7-0.6c0.4,0,0.8,0.1,1.1,0.2l-0.2,1
		c-0.2-0.1-0.4-0.2-0.8-0.2c-1.1,0-1.3,0.9-1.3,2v0.4h1.7v1h-1.7v6H315.5z"/>
	<path class="st3" d="M325.7,147.1c0,2.6-1.8,3.7-3.5,3.7c-1.9,0-3.3-1.4-3.3-3.6c0-2.3,1.5-3.7,3.4-3.7
		C324.4,143.5,325.7,145,325.7,147.1z M320.2,147.2c0,1.5,0.9,2.7,2.1,2.7c1.2,0,2.1-1.1,2.1-2.7c0-1.2-0.6-2.7-2.1-2.7
		C320.8,144.5,320.2,145.9,320.2,147.2z"/>
	<path class="st3" d="M327.3,145.9c0-0.8,0-1.5-0.1-2.2h1.1l0,1.4h0.1c0.3-0.9,1.1-1.5,1.9-1.5c0.1,0,0.2,0,0.4,0v1.2
		c-0.1,0-0.3,0-0.4,0c-0.9,0-1.5,0.7-1.7,1.6c0,0.2-0.1,0.4-0.1,0.6v3.7h-1.2V145.9z"/>
	<path class="st3" d="M181.9,158.2v9.7h-2.2v-9.7H181.9z"/>
	<path class="st3" d="M183.7,163.1c0-0.9,0-1.6-0.1-2.2h1.9l0.1,1h0c0.3-0.4,1-1.1,2.2-1.1c1.4,0,2.5,0.9,2.5,3v4.2h-2.2V164
		c0-0.9-0.3-1.5-1.1-1.5c-0.6,0-1,0.4-1.1,0.8c-0.1,0.1-0.1,0.3-0.1,0.5v4h-2.2V163.1z"/>
	<path class="st3" d="M192.4,167.8v-5.4h-0.9v-1.6h0.9v-0.3c0-0.8,0.3-1.8,0.9-2.4c0.5-0.5,1.3-0.7,1.9-0.7c0.5,0,0.9,0.1,1.2,0.1
		l-0.1,1.7c-0.2-0.1-0.4-0.1-0.7-0.1c-0.7,0-1,0.6-1,1.2v0.4h1.4v1.6h-1.4v5.4H192.4z"/>
	<path class="st3" d="M203.8,164.3c0,2.6-1.8,3.7-3.7,3.7c-2.1,0-3.6-1.3-3.6-3.6c0-2.3,1.5-3.7,3.7-3.7
		C202.4,160.7,203.8,162.1,203.8,164.3z M198.7,164.3c0,1.2,0.5,2.1,1.4,2.1c0.8,0,1.4-0.8,1.4-2.1c0-1-0.4-2.1-1.4-2.1
		C199.1,162.2,198.7,163.3,198.7,164.3z"/>
	<path class="st3" d="M205.2,163.1c0-1,0-1.7-0.1-2.3h1.9l0.1,1.3h0.1c0.4-1,1.2-1.4,1.9-1.4c0.2,0,0.3,0,0.5,0v2.1
		c-0.2,0-0.3-0.1-0.6-0.1c-0.8,0-1.3,0.4-1.5,1.1c0,0.1,0,0.3,0,0.5v3.6h-2.2V163.1z"/>
	<path class="st3" d="M210.6,163.1c0-0.9,0-1.6-0.1-2.2h1.8l0.1,0.9h0c0.3-0.4,0.9-1.1,2.1-1.1c0.9,0,1.6,0.5,1.9,1.2h0
		c0.3-0.4,0.6-0.6,0.9-0.8c0.4-0.2,0.8-0.3,1.3-0.3c1.3,0,2.4,0.9,2.4,3v4.1h-2.1V164c0-1-0.3-1.6-1-1.6c-0.5,0-0.9,0.3-1,0.8
		c-0.1,0.2-0.1,0.4-0.1,0.6v4.1h-2.1v-3.9c0-0.9-0.3-1.5-1-1.5c-0.6,0-0.9,0.4-1,0.8c-0.1,0.2-0.1,0.4-0.1,0.5v4.1h-2.1V163.1z"/>
	<path class="st3" d="M226.9,167.8l-0.1-0.7h0c-0.5,0.6-1.2,0.9-2,0.9c-1.4,0-2.3-1-2.3-2.2c0-1.8,1.6-2.7,4.1-2.7v-0.1
		c0-0.4-0.2-0.9-1.3-0.9c-0.7,0-1.5,0.2-1.9,0.5l-0.4-1.4c0.5-0.3,1.4-0.6,2.7-0.6c2.3,0,3.1,1.4,3.1,3v2.4c0,0.7,0,1.3,0.1,1.7
		H226.9z M226.7,164.5c-1.1,0-2,0.3-2,1.1c0,0.6,0.4,0.8,0.9,0.8c0.5,0,1-0.4,1.1-0.8c0-0.1,0-0.2,0-0.4V164.5z"/>
	<path class="st3" d="M232.8,158.8v2h1.6v1.6h-1.6v2.5c0,0.8,0.2,1.2,0.9,1.2c0.3,0,0.5,0,0.6-0.1l0,1.6c-0.3,0.1-0.8,0.2-1.4,0.2
		c-0.7,0-1.3-0.2-1.6-0.6c-0.4-0.4-0.6-1.1-0.6-2.1v-2.9h-0.9v-1.6h0.9v-1.5L232.8,158.8z"/>
	<path class="st3" d="M237.9,158.9c0,0.6-0.5,1.1-1.2,1.1c-0.7,0-1.1-0.5-1.1-1.1c0-0.6,0.4-1.1,1.1-1.1
		C237.5,157.8,237.9,158.2,237.9,158.9z M235.7,167.8v-7h2.2v7H235.7z"/>
	<path class="st3" d="M246.5,164.3c0,2.6-1.8,3.7-3.7,3.7c-2.1,0-3.6-1.3-3.6-3.6c0-2.3,1.5-3.7,3.7-3.7
		C245.1,160.7,246.5,162.1,246.5,164.3z M241.4,164.3c0,1.2,0.5,2.1,1.4,2.1c0.8,0,1.4-0.8,1.4-2.1c0-1-0.4-2.1-1.4-2.1
		C241.8,162.2,241.4,163.3,241.4,164.3z"/>
	<path class="st3" d="M247.9,163.1c0-0.9,0-1.6-0.1-2.2h1.9l0.1,1h0c0.3-0.4,1-1.1,2.2-1.1c1.4,0,2.5,0.9,2.5,3v4.2h-2.2V164
		c0-0.9-0.3-1.5-1.1-1.5c-0.6,0-1,0.4-1.1,0.8c-0.1,0.1-0.1,0.3-0.1,0.5v4h-2.2V163.1z"/>
	<path class="st3" d="M259.3,165.6c0.6,0.3,1.5,0.6,2.4,0.6c1,0,1.5-0.4,1.5-1c0-0.6-0.5-0.9-1.6-1.4c-1.6-0.6-2.7-1.4-2.7-2.9
		c0-1.6,1.4-2.9,3.7-2.9c1.1,0,1.9,0.2,2.5,0.5l-0.5,1.8c-0.4-0.2-1.1-0.5-2-0.5s-1.4,0.4-1.4,0.9c0,0.6,0.5,0.9,1.8,1.4
		c1.7,0.6,2.5,1.5,2.5,2.9c0,1.6-1.2,3-3.9,3c-1.1,0-2.2-0.3-2.7-0.6L259.3,165.6z"/>
	<path class="st3" d="M266.9,157.7h2.2v4h0c0.2-0.3,0.5-0.5,0.9-0.7c0.3-0.2,0.7-0.3,1.1-0.3c1.4,0,2.5,1,2.5,3.1v4.1h-2.2V164
		c0-0.9-0.3-1.5-1.1-1.5c-0.6,0-0.9,0.4-1.1,0.8c-0.1,0.1-0.1,0.3-0.1,0.5v4.2h-2.2V157.7z"/>
	<path class="st3" d="M279.3,167.8l-0.1-0.7h0c-0.5,0.6-1.2,0.9-2,0.9c-1.4,0-2.3-1-2.3-2.2c0-1.8,1.6-2.7,4.1-2.7v-0.1
		c0-0.4-0.2-0.9-1.3-0.9c-0.7,0-1.5,0.2-1.9,0.5l-0.4-1.4c0.5-0.3,1.4-0.6,2.7-0.6c2.3,0,3.1,1.4,3.1,3v2.4c0,0.7,0,1.3,0.1,1.7
		H279.3z M279,164.5c-1.1,0-2,0.3-2,1.1c0,0.6,0.4,0.8,0.9,0.8c0.5,0,1-0.4,1.1-0.8c0-0.1,0-0.2,0-0.4V164.5z"/>
	<path class="st3" d="M282.8,163.1c0-1,0-1.7-0.1-2.3h1.9l0.1,1.3h0.1c0.4-1,1.2-1.4,1.9-1.4c0.2,0,0.3,0,0.5,0v2.1
		c-0.2,0-0.3-0.1-0.6-0.1c-0.8,0-1.3,0.4-1.5,1.1c0,0.1,0,0.3,0,0.5v3.6h-2.2V163.1z"/>
	<path class="st3" d="M290.5,158.9c0,0.6-0.5,1.1-1.2,1.1c-0.7,0-1.1-0.5-1.1-1.1c0-0.6,0.4-1.1,1.1-1.1
		C290.1,157.8,290.5,158.2,290.5,158.9z M288.3,167.8v-7h2.2v7H288.3z"/>
	<path class="st3" d="M292.2,163.1c0-0.9,0-1.6-0.1-2.2h1.9l0.1,1h0c0.3-0.4,1-1.1,2.2-1.1c1.4,0,2.5,0.9,2.5,3v4.2h-2.2V164
		c0-0.9-0.3-1.5-1.1-1.5c-0.6,0-1,0.4-1.1,0.8c-0.1,0.1-0.1,0.3-0.1,0.5v4h-2.2V163.1z"/>
	<path class="st3" d="M307.3,160.8c0,0.4-0.1,1-0.1,2.1v3.9c0,1.3-0.3,2.5-1.1,3.2c-0.8,0.7-1.8,0.9-2.9,0.9c-0.9,0-1.9-0.2-2.5-0.5
		l0.4-1.6c0.4,0.3,1.2,0.5,2,0.5c1,0,1.8-0.6,1.8-1.8v-0.5h0c-0.4,0.6-1.1,0.9-1.9,0.9c-1.7,0-3-1.4-3-3.4c0-2.3,1.5-3.7,3.2-3.7
		c1,0,1.6,0.4,1.9,1h0l0.1-0.8H307.3z M305.1,163.7c0-0.1,0-0.3,0-0.4c-0.2-0.6-0.6-1-1.2-1c-0.8,0-1.4,0.7-1.4,2
		c0,1,0.5,1.9,1.4,1.9c0.6,0,1-0.4,1.1-0.9c0.1-0.2,0.1-0.4,0.1-0.6V163.7z"/>
	<path class="st3" d="M315.9,167.8l-0.1-0.7h0c-0.5,0.6-1.2,0.9-2,0.9c-1.4,0-2.3-1-2.3-2.2c0-1.8,1.6-2.7,4.1-2.7v-0.1
		c0-0.4-0.2-0.9-1.3-0.9c-0.7,0-1.5,0.2-1.9,0.5l-0.4-1.4c0.5-0.3,1.4-0.6,2.7-0.6c2.3,0,3.1,1.4,3.1,3v2.4c0,0.7,0,1.3,0.1,1.7
		H315.9z M315.6,164.5c-1.1,0-2,0.3-2,1.1c0,0.6,0.4,0.8,0.9,0.8c0.5,0,1-0.4,1.1-0.8c0-0.1,0-0.2,0-0.4V164.5z"/>
	<path class="st3" d="M319.5,163.1c0-0.9,0-1.6-0.1-2.2h1.9l0.1,1h0c0.3-0.4,1-1.1,2.2-1.1c1.4,0,2.5,0.9,2.5,3v4.2H324V164
		c0-0.9-0.3-1.5-1.1-1.5c-0.6,0-1,0.4-1.1,0.8c-0.1,0.1-0.1,0.3-0.1,0.5v4h-2.2V163.1z"/>
	<path class="st3" d="M334.7,157.7v8.1c0,0.8,0,1.6,0.1,2.1h-1.9l-0.1-1h0c-0.4,0.8-1.3,1.2-2.2,1.2c-1.7,0-3-1.4-3-3.6
		c0-2.4,1.5-3.7,3.1-3.7c0.9,0,1.5,0.3,1.8,0.8h0v-3.8H334.7z M332.5,163.8c0-0.1,0-0.3,0-0.4c-0.1-0.6-0.6-1.1-1.3-1.1
		c-1,0-1.5,0.9-1.5,2c0,1.2,0.6,1.9,1.5,1.9c0.6,0,1.1-0.4,1.3-1c0-0.2,0.1-0.3,0.1-0.5V163.8z"/>
	<path class="st3" d="M341.7,165.4l-0.7,2.5h-2.3l3-9.7h2.9l3,9.7h-2.4l-0.7-2.5H341.7z M344.1,163.7l-0.6-2.1
		c-0.2-0.6-0.3-1.3-0.5-1.9h0c-0.1,0.6-0.3,1.3-0.4,1.9l-0.6,2.1H344.1z"/>
	<path class="st3" d="M348.7,163.1c0-0.9,0-1.6-0.1-2.2h1.9l0.1,1h0c0.3-0.4,1-1.1,2.2-1.1c1.4,0,2.5,0.9,2.5,3v4.2h-2.2V164
		c0-0.9-0.3-1.5-1.1-1.5c-0.6,0-1,0.4-1.1,0.8c-0.1,0.1-0.1,0.3-0.1,0.5v4h-2.2V163.1z"/>
	<path class="st3" d="M361.1,167.8l-0.1-0.7h0c-0.5,0.6-1.2,0.9-2,0.9c-1.4,0-2.3-1-2.3-2.2c0-1.8,1.6-2.7,4.1-2.7v-0.1
		c0-0.4-0.2-0.9-1.3-0.9c-0.7,0-1.5,0.2-1.9,0.5l-0.4-1.4c0.5-0.3,1.4-0.6,2.7-0.6c2.3,0,3.1,1.4,3.1,3v2.4c0,0.7,0,1.3,0.1,1.7
		H361.1z M360.8,164.5c-1.1,0-2,0.3-2,1.1c0,0.6,0.4,0.8,0.9,0.8c0.5,0,1-0.4,1.1-0.8c0-0.1,0-0.2,0-0.4V164.5z"/>
	<path class="st3" d="M364.6,157.7h2.2v10.2h-2.2V157.7z"/>
	<path class="st3" d="M370.2,160.8l1,3.4c0.1,0.4,0.3,0.9,0.3,1.3h0c0.1-0.4,0.2-0.9,0.3-1.3l0.9-3.4h2.3l-1.6,4.6
		c-1,2.8-1.7,3.9-2.5,4.6c-0.8,0.7-1.6,0.9-2.1,1l-0.5-1.8c0.3,0,0.6-0.2,0.9-0.4c0.3-0.2,0.7-0.5,0.9-0.9c0.1-0.1,0.1-0.2,0.1-0.3
		c0-0.1,0-0.2-0.1-0.4l-2.6-6.4H370.2z"/>
	<path class="st3" d="M375.9,165.9c0.4,0.2,1.2,0.5,1.9,0.5c0.7,0,0.9-0.2,0.9-0.6c0-0.4-0.2-0.5-1-0.8c-1.4-0.5-2-1.3-2-2.1
		c0-1.3,1.1-2.3,2.9-2.3c0.8,0,1.5,0.2,2,0.4l-0.4,1.5c-0.3-0.2-0.9-0.4-1.5-0.4c-0.5,0-0.8,0.2-0.8,0.6c0,0.3,0.3,0.5,1.1,0.8
		c1.3,0.5,1.9,1.1,1.9,2.2c0,1.3-1,2.3-3,2.3c-0.9,0-1.7-0.2-2.3-0.5L375.9,165.9z"/>
	<path class="st3" d="M384.3,158.9c0,0.6-0.5,1.1-1.2,1.1c-0.7,0-1.1-0.5-1.1-1.1c0-0.6,0.4-1.1,1.1-1.1
		C383.9,157.8,384.3,158.2,384.3,158.9z M382.1,167.8v-7h2.2v7H382.1z"/>
	<path class="st3" d="M386,165.9c0.4,0.2,1.2,0.5,1.9,0.5c0.7,0,0.9-0.2,0.9-0.6c0-0.4-0.2-0.5-1-0.8c-1.4-0.5-2-1.3-2-2.1
		c0-1.3,1.1-2.3,2.9-2.3c0.8,0,1.5,0.2,2,0.4l-0.4,1.5c-0.3-0.2-0.9-0.4-1.5-0.4c-0.5,0-0.8,0.2-0.8,0.6c0,0.3,0.3,0.5,1.1,0.8
		c1.3,0.5,1.9,1.1,1.9,2.2c0,1.3-1,2.3-3,2.3c-0.9,0-1.7-0.2-2.3-0.5L386,165.9z"/>
</g>
</svg>
